# xmcd
#
# Track frame offsets: 
#        150
#        10192
#        22579
#        36841
#        49268
#        63291
#        72245
#        81832
#        102459
#        113699
#        126969
#        135921
#        147294
#
# Disc length: 2094 seconds
#
# Revision: 2
# Processed by: cddbd v1.5.2PL0 Copyright (c) Steve Scherf et al.
# Submitted via: ExactAudioCopy v1.1
#
DISCID=a7082c0d
DTITLE=Ray Condo And His Ricochets - Swing Brother Swing!
DYEAR=1996
DGENRE=Country
TTITLE0=Hadicillin Boogie
TTITLE1=Loud Mouth
TTITLE2='Taint No Use
TTITLE3=Swing Brother Swing!
TTITLE4=Teardrops From My Eyes
TTITLE5=Strathcona
TTITLE6=Something I Said
TTITLE7=It Ain't Right
TTITLE8=Ice Water
TTITLE9=What More Do You Want Me To Do?
TTITLE10=Rockin' Record Hop
TTITLE11=There's A House In Harlem For Sale
TTITLE12=Sunset Blues
EXTD=
EXTT0=
EXTT1=
EXTT2=
EXTT3=
EXTT4=
EXTT5=
EXTT6=
EXTT7=
EXTT8=
EXTT9=
EXTT10=
EXTT11=
EXTT12=
PLAYORDER=
